# xmcd CD database file
#
# Track frame offsets:
#	187
#	12400
#	24925
#	37022
#	48990
#	61835
#	74502
#	86495
#	98497
#	115500
#	143560
#
# Disc length: 2105 seconds
#
# Revision: 3
# Processed by: cddbd v1.5.2PL0 Copyright (c) Steve Scherf et al.
# Submitted via: CDex 1.51
#
DISCID=8208370b
DTITLE=Jerry Butler - Greatest Hits [1991 Compilation]
DYEAR=1991
DGENRE=Soul/R&B
TTITLE0=For Your Precious Love [with The Impressions]
TTITLE1=He Will Break Your Heart
TTITLE2=Moon River
TTITLE3=Make It Easy On Yourself
TTITLE4=Let It Be Me [with Betty Everett]
TTITLE5=Hey, Western Union Man
TTITLE6=Only The Strong Survive
TTITLE7=What's The Use Of Breaking Up
TTITLE8=I Wanna Do It To You
TTITLE9=Chalk It Up
TTITLE10=The Devil In Mrs. Jones
EXTD=For Your Precious Love with The Impressions\nLet It Be Me with Betty Everett YEAR: 1991
EXTT0=
EXTT1=
EXTT2=
EXTT3=
EXTT4=
EXTT5=
EXTT6=
EXTT7=
EXTT8=
EXTT9=
EXTT10=
PLAYORDER=
